<svg width="60" height="100" viewBox="0 0 60 100" fill="none" xmlns="http://www.w3.org/2000/svg">
<path d="M59.1813 48.7477C58.6571 50.3502 56.9322 51.2245 55.3297 50.7003L54.3737 50.3867C53.1192 49.9764 51.7423 50.4189 50.9625 51.4844L17.9111 96.5869C14.0208 101.897 5.60863 99.1432 5.60863 92.5613L5.61293 36.6429C5.61293 35.3217 4.76442 34.151 3.5099 33.7407L2.55397 33.4271C0.951452 32.9029 0.0771494 31.178 0.601298 29.5754C1.12545 27.9729 2.85041 27.0986 4.45293 27.6228L57.2265 44.8917C58.8312 45.4202 59.7054 47.1452 59.1813 48.7477Z" fill="#F7437C"/>
<path d="M56.807 39.8509C56.3021 41.3954 55.5847 42.8089 54.6953 44.0699L43.7784 40.4975L38.7152 55.9706C38.3651 57.0382 37.2158 57.6204 36.1482 57.2724C35.0806 56.9222 34.4984 55.773 34.8464 54.7053L39.9096 39.2322L38.2126 38.678L35.8625 45.8614C35.5124 46.9291 34.3631 47.5112 33.2955 47.1632C32.2278 46.8131 31.6457 45.6638 31.9937 44.5962L34.3438 37.4128L6.98066 28.4593C7.00858 26.9169 7.26636 25.353 7.77118 23.8085C9.84414 17.4736 15.5088 13.3213 21.7728 12.8702C21.8673 12.4942 21.9769 12.114 22.1015 11.7359C24.8382 3.3732 33.8347 -1.18732 42.1974 1.54942C50.558 4.28616 55.1207 13.2826 52.3839 21.6453C52.2593 22.0234 52.124 22.395 51.9779 22.7538C56.764 26.8181 58.8799 33.5139 56.807 39.8509Z" fill="#FFAC26"/>
<path d="M19.4335 11.0893C17.6226 11.2505 15.8332 11.7252 14.1791 12.5393C12.525 13.3513 11.0149 14.5028 9.75176 15.9141C7.2148 18.7368 5.7068 22.5562 5.48769 26.5023C5.24495 22.5583 6.27821 18.4339 8.65836 15.0505C9.84414 13.3621 11.365 11.8756 13.1394 10.7263C14.9116 9.57275 16.9266 8.77149 19.021 8.33327C19.775 8.17431 20.514 8.65764 20.6708 9.40949C20.8298 10.1635 20.3464 10.9025 19.5946 11.0593C19.5452 11.0765 19.485 11.085 19.4335 11.0893Z" fill="#FFAC26"/>
<path d="M51.3292 1.24868C54.0917 4.04986 55.7415 7.69098 56.2484 11.3879C56.7618 15.087 56.0981 18.9043 54.2936 22.0256C55.6792 18.6938 55.793 14.9904 54.8844 11.6608C53.9821 8.32683 52.0574 5.32801 49.4689 3.31735C48.861 2.84475 48.7514 1.96831 49.224 1.36038C49.6966 0.752459 50.573 0.642903 51.181 1.1155C51.2282 1.15201 51.2712 1.19068 51.312 1.23149L51.3292 1.24868Z" fill="#FFAC26"/>
</svg>
