<svg width="210" height="200" viewBox="0 0 210 200" fill="none" xmlns="http://www.w3.org/2000/svg">
        <path d="M137.589 72.7465C137.425 72.5081 137.15 72.4157 137.021 72.4329C136.766 72.4672 136.413 72.7744 136.338 73.1783C135.889 78.5959 135.93 82.7784 133.125 87.2078C132.493 88.3378 131.037 89.1884 130.463 89.7899L129.928 90.647C129.464 91.1003 128.474 91.4977 127.187 91.6695C126.545 91.7555 124.603 91.8843 123.729 91.2163C120.668 88.8834 119.385 84.2198 118.663 80.7849L118.311 79.1329C118.936 78.9181 120.09 78.7635 120.461 78.583C120.59 78.5658 121.675 77.8956 122.788 76.437C122.917 76.4198 123.379 75.9666 123.49 75.8227C123.937 75.2384 124.291 74.0161 124.575 73.1933C124.667 72.9162 125.097 72.2052 125.172 71.8035C125.155 71.6746 125.273 70.6112 125.256 70.4845C125.239 70.3578 125.546 68.7466 125.529 68.6178C125.621 68.3449 125.647 67.5566 125.647 67.5566L125.458 66.1431C125.215 64.3429 124.736 62.7082 123.722 61.0155C122.582 59.3399 121.802 58.3969 119.877 58.6546C117.948 58.9146 116.494 59.7631 115.699 60.6546C112.666 64.3322 111.076 68.0743 110.816 72.9484L111.093 75.0021C111.11 75.1331 111.031 75.5348 110.904 75.552C110.887 76.0675 110.881 76.6325 110.915 77.2512C110.249 79.4724 109.819 80.8278 109.201 82.3165C108.44 85.427 106.322 89.1089 104.176 91.6223C103.046 92.952 101.867 93.895 100.327 94.1034C99.0421 94.2752 97.5062 93.5642 96.4364 92.4042C94.5504 90.0412 93.2013 86.8233 92.7352 83.3584C92.4409 81.1737 92.6278 78.6668 92.5998 77.4918C92.5139 76.8495 92.6127 75.6594 92.5096 74.8903L92.8275 74.3232C92.7717 71.9775 92.7524 69.8873 93.1691 68.1301L94.2604 64.5857C94.2432 64.4568 94.5847 63.1035 94.6792 62.8306C95.1067 62.1196 95.6996 61.6492 96.3419 61.5632C97.2398 61.4429 98.6426 62.169 99.4589 63.3634C99.7661 63.7157 99.9852 64.3408 100.215 65.0948L100.335 65.9927C100.421 66.635 100.172 67.7134 99.91 68.6629C99.8176 68.94 99.6608 69.7434 99.5513 69.8895C99.3064 70.9678 98.9992 72.5768 99.1538 73.7325C99.2569 74.5037 99.7102 74.9655 100.739 74.8281C102.408 74.6025 102.653 73.5263 102.902 72.4436C103.055 71.6424 103.338 70.8196 103.618 69.9969C103.805 69.4469 104.011 69.0259 103.891 68.128C103.822 67.6167 103.532 67.3912 103.237 67.1699L102.526 66.7424C102.509 66.6135 102.294 65.9884 102.099 65.4944C101.525 64.1324 100.572 61.9069 99.6458 60.8543C99.0787 60.5407 97.7103 60.0703 96.4257 60.2421C95.1411 60.414 94.3119 61.0498 93.7018 61.3935C93.5751 61.4107 93.2207 61.7179 92.965 61.7523C90.3658 63.8016 89.0575 66.7252 87.6634 69.0023L86.3058 71.5392C85.8955 72.3792 85.4701 75.0536 85.1995 76.9204C85.2124 77.0492 85.0448 77.7259 85.062 77.8526L85.0491 78.0567L84.7032 78.0352C84.5937 78.1813 84.1168 78.5057 83.9836 78.5229C83.2812 79.1415 82.2135 79.9406 81.5712 80.0266C80.929 80.1125 80.2158 79.685 79.6701 79.4981C79.1374 79.4401 78.5531 78.9933 78.0075 78.8064C78.1256 77.7431 78.2695 75.8935 78.2588 74.8495C78.1901 74.334 78.1793 73.2921 78.1106 72.7766C78.0655 71.4748 77.9688 69.7885 77.8141 68.6328C77.8141 68.6328 77.7798 68.3729 77.8764 68.1001C77.9516 67.6962 78.0118 67.1678 77.9946 67.0389L77.7347 65.1098C77.58 63.9563 77.4232 62.7984 77.6509 61.5912C77.638 61.4623 77.4017 60.7104 77.3501 60.3238C77.2986 59.9392 77.3265 59.153 77.275 58.7663C77.2986 57.978 77.2707 56.8072 77.1332 55.7783C77.1332 55.7783 76.9527 55.4109 76.9184 55.1532L76.7293 53.744C76.695 53.4841 76.7873 53.2112 76.7358 52.8246C76.7186 52.6957 76.5038 52.0706 76.4007 51.3015C76.1858 50.6786 76.0827 49.9095 76.0484 49.6496C76.0484 49.6496 75.6166 48.4015 75.5307 47.7592L74.6671 41.3363C74.5661 40.5651 74.332 39.8132 74.2976 39.5576C74.0377 37.6329 73.7455 35.4482 72.7316 33.7555L72.6629 33.2399C72.403 31.3109 71.896 28.5054 71.3052 27.0167C70.8391 25.5109 70.7983 24.2069 70.3128 22.5722C70.2269 21.9299 69.6705 20.6969 69.1958 20.1083L66.8285 14.1515C66.5407 13.0108 66.2764 12.0012 65.864 10.8798L65.2969 8.6028L63.3764 5.98421C63.5225 6.09806 63.3421 5.72858 63.1767 5.49013C62.979 4.99176 62.5279 4.53206 62.2164 4.17976L58.4464 1.41939C56.9298 0.83939 55.3531 0.787835 55.0803 0.693317C54.6786 0.618132 54.0191 0.57517 53.5035 0.64391C51.8344 0.869466 50.1417 3.84035 49.4156 5.24739C49.3061 5.39347 49.2115 5.66843 49.2287 5.79732L49.2975 6.30858C49.2975 6.30858 48.0494 8.69947 47.9807 10.1473C47.5381 10.7316 47.2653 12.5962 47.2761 13.6402C47.2009 14.0441 47.1558 14.7035 47.173 14.8324L46.9689 15.2513C46.7476 15.5413 46.5586 16.0912 46.593 16.3512C46.593 16.3512 46.5178 16.7529 46.535 16.8796C46.2901 17.9601 46.3824 19.6464 46.5221 20.6732C46.4125 20.8193 46.4469 21.0749 46.4812 21.3327C46.5672 21.975 46.8615 22.1963 46.8958 22.4519C46.913 22.5829 46.8164 22.8558 46.7068 23.0018L46.9667 24.9266C47.1128 25.0404 47.1472 25.2961 47.1815 25.5517C47.2159 25.8116 47.2331 25.9384 47.1235 26.0844L47.3835 28.0092C47.5295 28.123 47.5467 28.2519 47.5639 28.3787C47.5983 28.6343 47.4887 28.7825 47.5231 29.0381C47.4307 29.3109 47.4823 29.6976 47.5167 29.9532C47.5167 29.9532 47.6971 30.3206 47.7315 30.5784L48.4232 35.7124C48.7475 36.1936 48.8335 36.8359 48.9215 37.4782C48.9559 37.7338 49.1922 38.4878 49.4221 39.2397C49.6713 40.1204 49.9376 41.1344 50.0064 41.6456C50.4596 42.1096 50.5799 43.0075 50.683 43.7787L50.8033 44.6766C50.9064 45.4478 51.6282 46.9193 52.1889 48.1524L52.814 49.8967C53.0868 49.989 53.235 50.105 53.2694 50.3607L53.3381 50.8762C53.4241 51.5164 53.7484 51.9954 54.0578 52.3477L54.5304 52.9384C54.728 53.4325 55.0115 54.5732 55.0459 54.8288C55.2779 55.5828 55.6367 56.3175 55.9825 56.9254L56.5561 58.2873C56.5732 58.4162 56.7537 58.7814 56.7537 58.7814L57.57 59.9801C57.7161 60.0896 57.8987 60.4612 57.9158 60.588L58.0018 61.2303C58.1994 61.7243 58.5238 62.2055 58.8481 62.6846C58.8653 62.8135 59.194 63.2925 59.3379 63.4042C59.3551 63.5331 59.5012 63.6426 59.5184 63.7715C59.7332 64.3966 60.4206 65.6125 60.7621 66.2183L62.573 68.9829C62.573 68.9829 62.7535 69.3524 62.8974 69.4641C62.9146 69.593 63.095 69.9625 63.2432 70.0721C63.9865 70.7552 64.9124 71.8078 65.8382 72.8604C67.0755 74.2631 68.489 76.0332 70.1259 77.5111L70.4718 80.0824C70.2677 80.5013 70.5276 82.4282 70.6995 83.7149C70.8026 84.4861 70.7747 85.2724 70.7918 85.4012C70.8434 85.7858 70.7682 86.1896 70.6737 86.4624C70.7081 86.7181 70.7016 87.6332 70.7875 88.2776C70.7467 88.9371 70.8498 89.7083 70.8842 89.9682C70.9873 90.7394 70.953 92.4429 70.7833 93.1152C70.8176 93.3752 70.7596 93.9036 70.6995 94.4342C70.6372 94.9669 70.7059 95.4804 70.7231 95.6092C70.7747 95.9938 70.5706 96.4148 70.4782 96.6876C70.3493 96.7048 70.3858 96.9604 70.403 97.0915L70.3235 97.4932C70.3407 97.6221 69.301 99.5898 68.1195 100.535C67.735 100.586 67.5911 100.477 67.5911 100.477C67.3484 100.64 67.2216 100.657 67.2216 100.657L65.4236 100.9C62.8523 101.246 61.5784 100.503 58.5087 97.1237C57.9244 96.6812 57.8385 96.0389 57.5141 95.5577C57.3487 95.3192 56.8783 94.7285 57.0072 94.7113C55.4906 92.1722 54.6055 90.458 53.4262 86.5634C53.119 86.2111 52.6636 85.7514 52.2791 85.8029C52.0192 85.8373 51.3189 86.4517 51.2415 86.8577C50.0708 88.8447 49.8947 90.4386 50.1868 92.6212C50.6852 94.3826 51.0955 95.5061 51.4241 95.9873C53.0696 98.5092 55.1447 100.324 57.4046 101.59C57.8299 101.912 59.0221 102.498 59.0973 102.533C59.0973 102.522 59.1983 102.55 60.3626 103.151C61.1681 103.306 63.7115 103.749 66.1497 103.42C67.9455 103.177 70.3214 102.335 71.4814 101.263L72.8154 99.5146C72.8949 99.1107 73.099 98.6918 73.578 98.3675C73.6875 98.2192 74.0549 98.0388 74.1301 97.6392C74.97 96.0883 75.8292 93.7489 76.0849 91.7555L76.0161 91.2399C75.9989 91.111 76.0913 90.8382 76.0741 90.7072C76.0913 90.8382 76.3749 90.0155 76.4672 89.7405L76.7809 89.1777C76.7637 89.0466 76.8045 88.3893 76.753 88.0026L76.6842 87.4871L77.0193 87.051L76.9334 86.4087C76.9162 86.2798 76.9914 85.876 76.9742 85.7492L77.638 80.9524L78.7164 81.2016C79.6658 81.4637 81.1309 81.6613 82.0309 81.541C83.1716 81.2575 83.5024 80.8192 83.728 80.5292L84.1877 80.0738C84.54 79.7666 84.7892 79.4766 84.9782 79.1544L84.9331 79.8418C84.8472 81.1586 84.8751 82.3337 85.0298 83.4872C85.1157 84.1295 85.4164 85.3991 86.0115 86.8878C86.063 87.2723 86.6602 87.8458 86.9717 88.1981L88.6172 90.7201L91.8931 93.6781L93.8801 94.8488C94.1744 95.0744 94.7544 95.5147 95.4311 95.6887L96.9133 96.0109C98.7092 95.7682 98.9863 95.8649 100.047 95.983C100.69 95.8971 100.928 95.7338 101.427 95.5362C101.553 95.519 103.061 95.0529 103.409 94.7457C104.574 93.6738 106.849 91.1454 107.463 89.8866C108.763 87.8781 109.497 85.5559 110.522 83.4593L110.404 82.5614C111.106 81.9427 110.973 81.9599 111.308 81.5238L111.473 81.0169C112.047 83.6612 112.934 85.9061 114.369 87.7792C114.842 88.37 116.221 89.8844 116.951 90.4408C118.846 91.8844 121.458 92.8424 123.454 93.0981C124.13 93.2678 125.048 93.2742 125.817 93.1711C126.588 93.068 127.213 92.8532 127.34 92.836C127.982 92.7501 130.225 91.923 130.684 91.4719C132.903 89.4741 135.032 86.8341 135.954 83.9641C136.063 83.8181 136.276 82.4862 136.259 82.353C136.678 80.598 137.258 79.0814 137.402 77.2318L137.589 72.7465ZM69.6555 73.1267C69.5631 73.3995 69.4514 73.5456 69.4686 73.6766L68.7232 72.9892C63.0907 67.0797 58.1221 58.3346 54.9213 51.0502C54.0191 49.2114 53.3038 46.8205 52.9171 44.9129C52.4961 42.7455 51.8173 40.6145 51.0611 38.8874C50.0966 35.6179 49.4328 31.6524 48.9323 27.9297C48.4318 24.2048 48.0451 20.3338 48.1998 16.6519C48.4683 12.8239 49.2953 8.26984 51.4692 4.96813C51.6561 4.41821 52.4918 2.87154 53.0073 2.80065C53.7785 2.69754 55.9825 6.4525 58.2703 15.6895C59.1725 17.5284 59.7761 20.0632 60.3604 22.4691L60.9104 24.6194C60.9275 24.7483 60.9963 25.2595 61.1939 25.7558C61.3915 26.2541 61.5913 26.7504 61.6085 26.8792C61.6257 27.0081 61.6751 27.3905 61.8405 27.6332C61.8921 28.0178 62.0553 28.2584 62.0725 28.3872C62.3969 28.8641 62.4828 29.5064 62.5537 30.022C62.6224 30.5332 62.5644 31.066 62.616 31.4526L62.7878 32.7351C62.8394 33.1218 62.8738 33.3774 63.0542 33.7469C63.2347 34.1142 63.4817 34.9949 63.5354 35.3816L63.6901 36.5352C63.7416 36.9218 64.0123 37.9315 64.3367 38.4105L64.9059 42.6467C65.531 44.3952 65.8318 45.6605 65.9886 46.8184C66.0917 47.5895 66.0509 48.249 66.154 49.0202L66.4483 51.2006C66.5858 52.2295 66.7082 53.1296 67.3784 54.2144C67.43 54.6011 67.4644 54.8567 67.6835 57.4452C67.8124 57.4281 67.9907 57.7932 68.0078 57.9221C68.0078 57.9221 67.967 58.5816 67.9842 58.7105L68.1217 59.7395C68.2248 60.5106 68.2184 61.4258 68.2355 61.5546C68.2871 61.9392 68.3387 62.3258 68.242 62.5987C68.2764 62.8586 68.184 63.1314 68.2184 63.387L68.5986 66.214C68.6158 66.3429 68.7017 66.9852 68.8821 67.3504C68.9509 67.8659 69.1485 68.3621 69.1485 68.3621C69.1657 68.491 69.0733 68.7638 69.1077 69.0216C69.0669 69.6789 69.2044 70.7079 69.2731 71.2192C69.2903 71.3502 69.4707 71.7175 69.4879 71.8443C69.5223 72.0999 69.6855 72.3426 69.6855 72.3426C69.7156 72.594 69.75 72.8539 69.6555 73.1267ZM118.032 77.0772C117.869 76.8387 117.725 76.7292 117.69 76.4692C117.69 76.4692 117.621 75.958 117.714 75.6809C117.918 75.262 117.531 73.3544 117.589 72.8238C117.699 70.7165 117.441 68.7918 117.548 66.6844C117.531 66.5555 117.907 65.4578 117.89 65.3289L117.821 64.8177C118.07 63.7372 118.189 62.676 118.468 61.8532C118.605 60.9209 119.013 60.081 119.916 59.9586C120.943 59.8211 121.394 60.2829 121.995 60.8543C123.159 61.7458 123.817 64.6652 123.989 65.9476L124.231 67.7478C124.249 67.8766 124.203 68.5361 124.111 68.8089C123.901 70.1472 123.959 71.5736 123.604 72.8002C123.355 73.8786 120.67 77.2469 119.389 77.4209C119.261 77.4359 118.358 77.5562 118.032 77.0772Z" fill="#F7437C" />
        <path d="M188.603 72.358C188.079 73.9605 186.354 74.8348 184.752 74.3107L183.796 73.9971C182.541 73.5868 181.164 74.0293 180.384 75.0948L147.333 120.197C143.443 125.508 135.031 122.754 135.031 116.172L135.035 60.2532C135.035 58.9321 134.186 57.7614 132.932 57.3511L131.976 57.0374C130.373 56.5133 129.499 54.7883 130.023 53.1858C130.547 51.5833 132.272 50.709 133.875 51.2331L186.648 68.5021C188.253 69.0305 189.127 70.7555 188.603 72.358Z" fill="#F7437C" />
        <path d="M68.9697 189.559C68.9697 189.557 68.9697 189.555 68.9697 189.553L66.9054 171.429C66.8023 170.535 67.4467 169.725 68.3425 169.624C69.2361 169.521 70.0417 170.161 70.1469 171.053C70.1469 171.055 70.1469 171.057 70.1469 171.059L72.2113 189.183C72.3144 190.077 71.67 190.887 70.7742 190.988C69.8827 191.091 69.0771 190.45 68.9697 189.559Z" fill="#FFAC26" />
        <path d="M103.036 185.527C103.036 185.525 103.036 185.522 103.036 185.52L100.972 167.396C100.869 166.503 101.513 165.693 102.409 165.592C103.303 165.489 104.108 166.129 104.213 167.02C104.213 167.023 104.213 167.025 104.213 167.027L106.278 185.151C106.381 186.044 105.736 186.854 104.841 186.955C103.949 187.058 103.141 186.418 103.036 185.527Z" fill="#FFAC26" />
        <path d="M137.099 181.495C137.099 181.492 137.099 181.49 137.099 181.488L135.034 163.364C134.931 162.471 135.576 161.661 136.471 161.56C137.365 161.457 138.171 162.097 138.276 162.988C138.276 162.99 138.276 162.993 138.276 162.995L140.34 181.119C140.443 182.012 139.799 182.822 138.903 182.923C138.012 183.026 137.204 182.386 137.099 181.495Z" fill="#FFAC26" />
        <path d="M171.161 177.462C171.161 177.46 171.161 177.458 171.161 177.456L169.097 159.332C168.994 158.438 169.638 157.628 170.534 157.527C171.428 157.424 172.233 158.065 172.338 158.956C172.338 158.958 172.338 158.96 172.338 158.962L174.403 177.086C174.506 177.98 173.861 178.79 172.966 178.891C172.074 178.994 171.269 178.354 171.161 177.462Z" fill="#FFAC26" />
        <path d="M87.2141 197.953C87.2141 197.951 87.2141 197.948 87.2141 197.946L83.964 169.408C83.8608 168.514 84.5053 167.705 85.4011 167.604C86.2947 167.501 87.1003 168.141 87.2055 169.032C87.2055 169.034 87.2055 169.036 87.2055 169.039L90.4557 197.577C90.5588 198.47 89.9143 199.28 89.0186 199.381C88.1271 199.486 87.3194 198.844 87.2141 197.953Z" fill="#F7437C" />
        <path d="M121.277 193.923C121.277 193.921 121.277 193.919 121.277 193.917L118.026 165.379C117.923 164.485 118.568 163.675 119.464 163.574C120.357 163.471 121.163 164.111 121.268 165.003C121.268 165.005 121.268 165.007 121.268 165.009L124.518 193.547C124.621 194.441 123.977 195.251 123.081 195.352C122.19 195.455 121.382 194.813 121.277 193.923Z" fill="#F7437C" />
        <path d="M155.339 189.891C155.339 189.889 155.339 189.887 155.339 189.885L152.089 161.347C151.986 160.453 152.63 159.643 153.526 159.542C154.42 159.439 155.225 160.079 155.331 160.971C155.331 160.973 155.331 160.975 155.331 160.977L158.581 189.515C158.684 190.409 158.039 191.219 157.144 191.32C156.252 191.423 155.447 190.783 155.339 189.891Z" fill="#F7437C" />
        <path d="M209.596 155.495C209.578 155.367 209.267 155.014 209.106 154.776C207.645 156.542 205.445 158.666 203.39 158.943C200.949 159.272 200.414 155.291 199.983 152.08L199.845 151.053C199.486 150.314 199.072 147.232 198.812 145.307C198.569 143.511 198.567 141.548 198.436 139.606C198.004 136.396 198.122 133.372 197.742 130.545C197.605 129.518 197.448 128.36 197.055 127.37C196.608 125.991 196.159 124.612 195.124 123.707C193.648 122.468 190.705 121.948 189.291 122.139C188.265 122.276 186.55 123.162 185.279 124.377L185.09 124.927C184.626 125.381 183.857 125.484 183.397 125.939L182.063 127.683L181.103 128.336C180.974 128.354 180.533 128.938 180.419 129.082C180.198 129.372 179.867 129.81 179.277 130.28C179.167 130.427 178.907 130.461 178.907 130.461C178.78 130.478 178.761 130.351 178.727 130.094C178.619 127.363 179.784 124.33 180.147 122.188C180.548 120.304 181.025 118.017 180.892 116.075L180.72 114.79C180.707 114.661 181.079 113.564 181.062 113.435C181.182 112.374 181.045 111.347 180.907 110.318C180.596 108.006 179.111 105.723 176.568 105.28C175.891 105.111 174.974 105.1 174.205 105.205C172.791 105.394 171.956 106.947 171.399 107.676C170.321 109.39 168.57 110.934 167.543 113.031C166.545 114.343 166.289 116.337 165.305 117.778L164.897 118.618C164.914 118.747 164.631 119.568 164.521 119.714C164.538 119.843 163.838 120.459 163.855 120.588L163.479 121.684C163.496 121.815 163.344 122.62 163.361 122.747C163.378 122.876 162.805 123.475 162.695 123.621L162.429 124.571L161.037 126.848C160.218 128.528 160.263 129.829 159.533 131.236L159.091 131.816C158.882 132.237 158.268 133.496 157.716 134.224C157.252 134.68 157.269 134.809 156.904 134.989C156.773 135.006 156.388 135.058 156.319 134.542L156.738 132.787C156.738 132.787 156.693 131.488 156.751 130.955C156.792 130.296 156.569 128.626 156.569 128.626C156.414 127.469 155.643 125.613 154.751 124.818L153.763 124.296C152.65 123.791 151.23 122.938 150.055 122.966C149.8 123 149.652 122.887 149.523 122.904C149.25 122.811 148.846 122.734 148.59 122.768C146.666 123.028 145.598 125.784 144.582 128.929C143.658 131.801 143.491 132.474 143.413 132.88C143.435 133.045 143.463 133.232 143.514 133.391C143.431 133.698 143.368 133.975 143.332 134.199C143.263 135.642 141.94 138.439 141.579 139.661C141.521 140.194 140.155 143.646 140.155 143.646C139.633 144.63 138.554 146.344 137.573 147.786C136.552 148.967 135.613 149.749 134.842 149.852C133.944 149.973 133.145 148.903 132.406 147.302C132.372 147.047 132.14 146.293 131.962 145.923C131.62 145.318 131.388 144.566 131.302 143.923C130.733 141.646 130.628 140.875 130.576 140.488C130.456 139.591 130.35 138.819 130.376 138.031C130.387 137.116 130.376 136.068 130.239 135.043L130.03 133.503C129.962 132.991 130.002 132.332 129.951 131.945C129.917 131.69 129.702 131.065 129.523 130.697C128.939 130.25 127.532 129.526 127.259 129.432L124.437 129.812C123.794 129.896 123.238 130.624 123.143 130.901C122.733 131.741 122.701 133.445 122.725 134.615C122.759 134.875 122.752 135.79 122.821 136.302L123.064 138.102C123.081 138.231 122.989 138.504 123.023 138.761C122.948 139.163 123.12 140.448 123.189 140.959L122.957 142.168C122.77 142.718 122.746 143.507 122.722 144.293L122.746 145.464C122.484 146.413 120.742 150.965 118.946 151.206C118.686 151.24 117.719 150.847 117.114 146.351C116.562 142.241 116.119 137.986 116.244 134.046C116.244 134.046 116.209 133.791 116.302 133.518C116.267 133.258 116.381 133.114 116.364 132.985L116.121 131.189C116.128 130.274 116.28 129.468 116.433 128.663L116.613 127.069C116.562 126.682 116.766 126.261 116.714 125.877L117.26 122.141C117.242 122.012 117.599 120.79 117.713 120.644C117.679 120.384 117.865 119.838 117.831 119.581C117.906 119.179 118.059 118.375 118.394 117.935L119.472 116.221C120.164 114.558 121.146 113.121 122.488 112.416C122.858 112.236 123.352 112.041 123.867 111.97C125.663 111.727 127.73 112.496 129.188 113.607L129.751 113.92C129.734 113.791 130.114 114.657 130.149 114.915C131.089 116.094 132.256 118.945 132.567 121.256C132.81 123.052 132.778 124.76 132.634 126.609C132.686 126.994 132.32 127.176 132.372 127.559C132.389 127.688 132.331 128.218 132.237 128.491C132.048 129.041 131.895 129.847 131.964 130.36L132.34 131.224L133.283 130.442C134.202 127.57 134.533 125.176 134.136 122.221C133.478 117.338 131.831 112.853 127.556 111.205C125.766 110.53 124.301 110.337 122.888 110.528C120.061 110.908 117.144 113.521 115.352 115.725C113.318 118.092 111.64 121.192 110.661 124.592C109.434 129.073 109.032 130.957 108.996 137.498C109.013 137.629 109.064 138.014 108.955 138.158C108.88 138.562 108.914 138.817 108.914 138.817C108.914 138.824 108.918 138.83 108.918 138.839C108.452 140.269 108.158 141.137 107.885 141.835C107.004 144.039 105.761 146.428 103.984 148.757C103.967 148.757 102.691 150.138 102.021 150.731L101.204 151.493L100.556 152.494C100.208 152.802 99.067 153.085 97.9113 153.24C97.269 153.326 95.2132 153.603 94.4699 152.918C91.4088 150.585 90.1028 146.707 89.4905 143.129L89.1039 141.217C89.8579 140.985 90.6097 140.753 91.2177 140.411C91.7332 140.342 92.6376 139.305 93.4152 138.282C93.6708 138.248 94.006 137.812 94.1177 137.668C94.3389 137.374 94.4313 137.101 94.7148 136.278L94.9017 135.728C94.8845 135.599 94.9984 135.455 95.1079 135.309C95.1079 135.309 95.4044 134.615 95.4817 134.214C95.4817 134.214 95.4302 133.827 95.5268 133.554C95.5097 133.425 95.5677 132.895 95.5505 132.766C95.5505 132.766 95.6085 132.233 95.6858 131.834C95.7782 131.556 95.8383 131.028 95.8211 130.897C95.9178 130.624 95.9414 129.836 95.9414 129.836L95.7524 128.422C95.5097 126.626 95.2691 124.828 94.2551 123.131C92.8374 121.361 91.8019 120.457 90.1328 120.683C88.0771 120.96 87.119 121.608 86.3242 122.5C82.9043 126.229 81.203 130.119 80.9602 135.12L81.2374 137.176C81.2545 137.305 81.1622 137.578 81.029 137.595C81.0054 138.373 80.9989 139.27 81.1471 140.405C80.5843 141.893 80.3051 142.226 80.2428 142.409C80.174 143.857 79.0677 147.274 78.6402 147.986C77.0571 150.812 76.374 151.558 75.1194 152.907C73.8434 154.123 72.4493 154.441 70.7802 154.666C68.4688 154.978 67.4119 151.981 67.2207 150.568C66.978 148.772 67.2701 147.032 67.0617 145.492C67.0445 145.36 67.3496 143.754 67.3302 143.623L67.1219 142.082C67.1283 141.167 67.3775 140.089 67.5128 139.157C67.8974 137.142 68.0241 135.165 68.4086 133.15C68.7308 131.668 68.6256 130.897 68.4022 129.228C68.0048 126.274 63.4851 125.707 61.1221 125.63C58.6302 125.574 56.4993 126.253 55.2383 125.636C54.9483 125.415 53.7497 124.268 53.7497 124.268C53.7325 124.139 53.9258 122.674 53.9086 122.547C53.8399 122.032 53.8871 118.498 53.8184 117.982C53.784 117.727 53.8141 116.023 53.7797 115.763C53.6422 114.736 53.4446 114.24 53.247 113.746L53.1095 112.717C52.7336 111.854 51.8249 110.93 49.7691 111.207C47.2021 111.553 44.0357 115.246 44.5728 119.228C44.8155 121.024 45.7156 122.867 47.7735 124.554C49.0839 125.552 51.3115 126.562 51.8722 127.791C51.8614 128.71 51.6917 129.385 51.7261 129.642L51.8292 130.414C51.8464 130.543 51.4017 131.123 51.4189 131.254C51.4361 131.382 51.464 132.553 51.4812 132.684C51.5156 132.94 51.3051 134.278 51.3222 134.405C51.3394 134.534 50.8948 135.114 50.912 135.245C50.9291 135.374 50.7422 135.919 50.7594 136.05L50.231 139.911C49.9431 141.653 49.1397 143.459 48.6113 145.36C48.0828 147.262 47.5265 147.99 47.4491 148.394C47.4491 148.394 46.2054 152.744 44.4117 156.909C44.4117 156.909 43.5202 158.073 43.2065 158.64C40.0509 163.377 36.4313 164.649 35.9544 164.977C35.6021 165.285 34.3691 165.841 33.5979 165.944L33.0694 165.886L32.5539 165.955C31.7827 166.058 30.6119 166.086 29.0159 165.91C27.5551 165.712 25.0182 164.354 23.3211 163.405C21.7186 162.183 20.9023 160.986 20.0517 159.532C19.3062 158.849 18.8358 158.256 18.7327 157.487C18.0281 156.142 17.1194 155.22 16.5459 153.859C15.6608 152.149 15.1109 149.998 14.6104 148.233C14.0197 146.744 13.3666 145.786 13.0143 144.134L12.894 143.236L12.4236 142.645L11.5708 139.228C11.3731 138.733 11.3216 138.347 11.2528 137.836L11.081 136.551L10.1208 133.281C10.052 132.766 10.1444 132.493 10.11 132.235L9.55795 128.126C9.50639 127.739 9.6138 125.634 9.57943 125.376L9.16484 122.294L9.22284 121.765C8.93499 116.702 8.26262 111.697 8.65358 106.806C8.60202 106.419 8.95002 106.112 8.91565 105.856C8.8641 105.469 8.77817 104.827 8.94573 102.189C8.75669 100.776 9.16269 99.9357 9.28513 98.8746C9.3861 97.6823 9.26365 96.7844 9.49565 95.5771C9.53647 94.9177 9.85439 94.3506 10.0241 93.6739C10.8576 90.1638 11.2851 87.4915 12.4128 84.2027C12.821 83.3628 12.9413 82.2994 13.5127 81.7001L14.1614 80.6991C15.3085 79.4961 15.4718 77.7754 16.3418 76.4844C17.6758 74.7358 18.9153 73.26 20.7025 71.9754C21.7917 71.3052 22.9731 70.3622 24.2212 69.9326C24.7024 69.6039 25.3447 69.518 25.987 69.432L27.9117 69.1721C28.3306 69.3805 28.7173 69.3268 29.2307 69.258L31.106 70.5748C31.1748 71.0904 33.1725 73.3051 33.6258 73.7648C33.9201 73.9904 34.2101 74.2117 34.4077 74.7079L36.3905 78.755C36.4764 79.3973 36.4356 80.0568 36.4871 80.4413C36.5043 80.5723 36.5215 80.7012 36.6676 80.8108C37.1402 81.4015 37.4409 82.6668 37.5977 83.8246C37.718 84.7226 37.6901 85.5109 37.7438 85.8976C38.1068 86.6301 38.2271 87.5323 38.3668 88.5591C38.6095 90.355 38.6267 92.4473 38.6546 93.6223C38.7234 94.1336 38.9038 94.5031 38.9382 94.7587L38.7384 97.1388L38.964 98.808C38.8437 99.8713 38.6224 100.163 38.7599 101.188L38.8458 101.83C38.8802 102.086 39.0434 102.329 39.095 102.711C38.5386 103.439 38.3517 103.989 38.4548 104.76L38.5579 105.532L38.24 106.094C38.2336 107.01 37.8727 108.236 37.7395 109.171C37.7567 109.3 37.7331 110.086 37.7502 110.215L37.1595 110.687C37.1595 110.687 37.1015 111.22 37.1187 111.347L36.6246 113.503L35.5291 115.089L35.0135 115.158C34.5022 115.226 34.4292 112.752 34.1048 112.273C33.832 112.18 33.8148 112.051 33.7977 111.925C33.7461 111.538 34.0425 110.844 33.991 110.46C33.9566 110.204 33.8105 110.092 33.7934 109.961C33.7762 109.832 33.4862 109.613 33.4862 109.613L34.0554 109.012C34.0039 108.627 33.6967 108.275 33.6623 108.019C33.6451 107.89 33.7547 107.746 33.8664 107.598L33.6065 105.673C33.7375 105.656 33.6344 104.885 33.6172 104.758C33.7525 103.826 33.6129 102.795 33.8771 101.845C33.9566 101.444 34.2702 100.879 34.2015 100.363L33.9845 97.779C33.6494 94.2925 35.1639 92.9134 34.9211 91.1176C34.8352 90.4753 34.4571 89.6117 33.3014 89.7664L32.2746 89.9039C30.8611 90.0929 29.4584 91.3281 28.8784 92.8447C28.6894 93.3903 28.0148 95.184 28.032 95.3129C26.915 99.6457 26.9708 103.951 27.5594 108.32C27.785 109.989 28.1545 111.772 28.5261 113.551C29.192 114.636 29.4176 116.309 30.3434 117.359C30.3606 117.488 31.5292 118.38 31.5464 118.506C31.5636 118.635 32.324 119.447 32.4551 119.428L33.2434 119.452C33.9008 119.497 34.3046 119.572 34.8159 119.503C35.8448 119.366 36.3325 118.122 37.0757 116.846C37.0585 116.717 38.1498 115.132 38.0295 114.234C38.0123 114.103 39.1487 109.897 39.516 107.757C39.6342 106.694 39.4602 105.411 39.5783 104.346C39.7759 102.881 40.1003 101.401 40.0037 99.7145L39.7974 98.1743C39.7802 98.0432 40.2228 97.4632 40.2056 97.3322C40.3259 96.271 40.2636 94.8403 40.1089 93.6868L39.9542 92.5289C39.8683 91.8888 39.9263 91.3582 39.9671 90.6966L39.3807 86.3294L39.0048 85.4658L38.4699 81.4853L37.6815 79.4983C37.6643 79.3694 37.7223 78.8409 37.6708 78.4543C35.4388 73.5243 32.2639 67.4149 26.8677 68.1388C23.914 68.5363 22.058 69.3096 20.361 70.3235C18.6682 71.3353 17.3579 72.2934 15.8284 73.5479C15.4933 73.984 14.4428 74.9098 14.4428 74.9098C11.6309 78.2953 9.01447 82.177 6.90928 85.9921C6.51832 86.9588 5.66121 88.383 5.15639 89.4957C3.56032 94.1572 2.0781 98.6705 1.52388 103.321C1.4401 104.64 1.72365 105.779 1.36491 107.005C1.19521 107.68 0.784912 108.52 0.632393 109.323L0.559356 113.65C0.559356 113.65 0.593727 113.905 0.421875 119.419L0.507801 120.062C0.802098 122.246 0.434763 124.388 0.600171 126.586L1.06632 130.055C1.10069 130.311 1.06632 132.014 1.0835 132.143L1.75802 137.152C2.2478 137.872 2.7161 141.337 3.10921 142.332C4.19402 146.499 5.68054 150.746 8.01343 154.484C8.51824 155.33 8.76958 156.211 9.40328 157.044C10.2711 158.627 11.7813 160.123 13.0315 161.654L14.9176 164.015C15.2419 164.496 16.4857 164.982 16.9218 165.317C19.3814 167.076 22.2363 167.871 25.0182 168.15L27.5444 168.462C28.3328 168.49 29.873 168.281 29.873 168.281C29.873 168.281 31.5937 168.44 32.6226 168.303C36.0876 167.837 39.6986 165.521 42.1561 163.362C42.1561 163.362 42.7254 162.76 43.4106 162.015C44.0937 161.27 47.4878 154.406 47.9926 153.294C48.1451 152.488 48.1688 151.7 48.1688 151.7C48.1688 151.7 48.9314 150.553 49.0259 150.275L50.304 146.181C50.9012 144.796 51.2084 143.184 51.6445 141.558C52.0011 140.332 51.7755 138.663 52.0075 137.457C52.1428 136.521 52.4608 135.958 52.6713 134.62L52.4822 133.206C52.5746 132.933 53.363 130.998 53.3286 130.738C53.2942 130.482 53.2663 129.307 53.3587 129.035L53.7862 128.324C53.8957 128.177 54.1535 128.143 54.2845 128.126L54.9247 128.04C55.8269 127.92 56.9977 127.892 58.4283 127.832L60.3531 127.572C60.4841 127.554 61.251 127.451 61.3197 127.963C61.3369 128.094 60.9803 129.318 60.5357 129.9C60.1962 131.251 60.1447 132.826 59.6742 134.199L58.9245 136.392C58.2779 139.354 57.6228 143.234 58.1061 146.832C58.4176 149.143 59.2253 151.259 60.6044 152.772L62.0286 153.624L64.7031 156.013C66.2884 157.104 68.6664 157.308 70.5954 157.051C73.1625 156.705 75.0808 155.403 76.3911 154.443C77.0742 153.697 77.4996 152.984 77.9292 152.273C77.9292 152.273 78.0388 152.127 78.6488 151.786L79.8196 149.794C79.8604 149.137 80.0516 148.589 80.2728 148.297L80.6402 148.117C81.145 147 81.2803 146.067 81.5639 145.244C81.6885 144.927 81.8066 144.619 81.9162 144.321C82.494 146.551 83.3254 148.447 84.567 150.071C85.0374 150.662 86.4187 152.177 87.2758 152.716C90.4443 154.903 93.6988 155.775 97.2969 155.289C97.9392 155.203 101.063 154.129 101.653 153.659C104.124 151.624 106.362 148.838 107.819 146.029L108.585 143.962C108.807 143.672 108.852 143.013 109.056 142.594C109.153 142.366 109.26 142.117 109.374 141.84C109.726 144.065 110.003 145.212 110.328 146.213L110.826 147.975C111.11 149.115 111.342 149.869 112.25 150.791C112.978 151.347 113.836 151.887 114.787 152.149C115.191 152.224 115.627 152.559 116.029 152.636C115.9 152.653 116.34 152.984 116.613 153.083C117.146 153.141 118.43 152.969 119.328 152.849C120.703 152.4 121.56 150.98 122.194 149.85L122.49 149.156C123.33 147.605 123.687 146.379 123.977 144.641C124.353 145.504 125.498 147.184 126.789 148.054C127.476 149.27 128.641 150.159 129.753 150.662C129.753 150.662 130.87 151.167 131.543 151.337C132.496 151.603 133.957 151.796 134.733 151.693C136.142 151.504 137.469 150.671 138.101 149.541L139.121 148.359C139.564 147.775 140.342 146.757 140.717 145.661L140.649 145.146C140.632 145.017 140.597 144.759 140.707 144.613L141.633 143.704L142.041 142.864C142.638 141.479 143.392 139.283 144.013 137.107L144.994 133.707C145.256 132.757 146.086 130.162 146.376 128.422C146.369 128.382 146.358 128.304 146.337 128.229C146.745 126.794 147.246 125.426 147.92 125.338C148.305 125.286 148.459 126.444 148.666 127.984C148.926 129.909 148.928 131.872 149.093 134.07C149.11 134.201 149.024 135.518 149.042 135.649L149.284 137.445C149.319 137.7 149.785 139.206 149.819 139.462C150.171 141.118 150.745 142.476 152.04 143.35L152.863 143.629C153.686 143.913 154.249 144.226 154.764 144.158C156.433 143.932 156.519 142.617 158.203 140.557C158.556 140.25 158.418 139.223 158.493 138.819C158.652 137.099 159.284 135.969 159.737 134.469C159.924 133.919 160.156 132.714 160.156 132.714L160.992 131.163C160.992 131.163 161.2 130.744 161.181 130.613C161.29 130.467 161.6 128.858 161.709 128.712L162.283 128.111C162.846 126.465 163.63 124.532 164.56 122.706L167.279 117.634L167.842 115.989C168.772 114.165 169.909 111.918 171.26 110.298L172.817 108.26C172.927 108.114 173.225 107.42 173.352 107.403C173.483 107.386 173.664 107.755 173.698 108.011C173.75 110.356 173.17 111.873 172.802 114.013L172.45 117.198C172.467 117.329 172.091 118.425 172.108 118.554C171.223 123.641 171.273 128.865 171.047 133.992C171.064 134.124 170.927 135.056 170.944 135.185C170.843 136.377 170.877 136.633 171.034 137.786C171.069 138.046 171.249 138.411 171.283 138.667C171.567 139.808 172.452 141.517 174.009 141.442L176.321 141.131C176.963 141.045 177.631 140.171 177.724 139.893L179.61 135.458C179.592 135.329 180.003 134.491 179.986 134.362C180.362 133.262 180.37 132.347 181.019 131.346C181.332 130.779 183.096 128.319 183.558 127.866C184.018 127.411 186.823 124.942 188.52 123.931C188.759 123.767 189.014 123.733 189.143 123.716C189.143 123.716 189.437 123.937 189.455 124.064C189.489 124.324 189.414 124.723 189.465 125.11C189.5 125.366 189.379 126.427 189.465 127.069L189.742 129.125C189.76 129.254 189.607 130.057 189.624 130.186C189.676 130.573 189.783 133.303 189.886 134.074L190.159 136.13C190.211 136.514 190.301 139.118 190.353 139.502L191.216 145.923C191.654 148.218 192.975 150.263 193.783 152.378L193.886 153.15C193.938 153.536 194.367 154.784 194.385 154.911C194.567 155.281 196.711 157.607 197.018 157.959C197.764 158.642 199.005 159.13 199.845 159.538C199.993 159.648 201.413 160.505 201.673 160.471L204.756 160.056C204.885 160.039 205.396 159.97 205.506 159.824C205.987 159.495 206.262 159.592 206.5 159.427C206.981 159.102 207.149 158.426 207.664 158.355C208.459 157.742 209.752 156.651 209.596 155.495ZM52.334 122.644C52.334 122.644 51.8808 122.18 51.8292 121.797L51.6037 120.128C51.3373 119.117 51.0516 117.978 50.912 116.949C50.7745 115.922 50.7831 115.007 51.0129 113.798C51.0881 113.396 50.927 113.158 51.3137 113.106C51.3137 113.106 51.4597 113.216 51.5113 113.6C51.58 114.116 52.0011 116.281 52.0719 116.792C52.0891 116.923 51.8571 118.131 51.8743 118.257L52.3061 121.467C52.392 122.113 52.4264 122.371 52.334 122.644ZM88.8139 139.182C88.6334 138.813 88.5303 138.042 88.4959 137.786C88.5539 137.253 88.4508 136.484 88.3821 135.971C88.3305 135.584 88.4057 135.18 88.3714 134.925L88.2511 132.068C88.2403 131.022 88.2296 129.978 88.3477 128.916C88.3477 128.916 88.3134 128.656 88.41 128.384C88.5024 128.111 88.5969 127.834 88.5797 127.707L88.511 127.191C88.6635 126.386 89.0459 124.375 89.0287 124.246C89.0459 124.375 89.8128 122.309 90.4551 122.221C91.2262 122.118 91.8105 122.562 92.4464 123.391C93.7138 125.054 94.0317 126.446 94.2745 128.246L94.5 129.915C94.5172 130.044 94.4764 130.704 94.3819 130.976L94.2014 132.57C94.1778 133.359 94.0425 134.295 93.8706 134.968C93.5291 136.323 91.0866 139.528 89.5442 139.732C89.2822 139.771 89.0094 139.676 88.8139 139.182Z" fill="#FFAC26" />
        <path d="M186.229 63.4603C185.724 65.0048 185.006 66.4183 184.117 67.6792L173.2 64.1069L168.137 79.58C167.787 80.6476 166.638 81.2298 165.57 80.8818C164.502 80.5316 163.92 79.3824 164.268 78.3147L169.331 62.8416L167.634 62.2874L165.284 69.4708C164.934 70.5384 163.785 71.1206 162.717 70.7726C161.65 70.4224 161.067 69.2732 161.415 68.2055L163.765 61.0221L136.402 52.0686C136.43 50.5263 136.688 48.9624 137.193 47.4179C139.266 41.083 144.93 36.9306 151.194 36.4795C151.289 36.1036 151.399 35.7234 151.523 35.3453C154.26 26.9826 163.256 22.4221 171.619 25.1588C179.98 27.8955 184.542 36.892 181.806 45.2547C181.681 45.6328 181.546 46.0044 181.4 46.3632C186.186 50.4275 188.302 57.1232 186.229 63.4603Z" fill="#FFAC26" />
        <path d="M148.855 34.6984C147.044 34.8596 145.255 35.3343 143.601 36.1484C141.947 36.9604 140.437 38.1118 139.174 39.5232C136.637 42.3458 135.129 46.1653 134.91 50.1114C134.667 46.1674 135.7 42.043 138.08 38.6596C139.266 36.9712 140.787 35.4847 142.561 34.3354C144.333 33.1818 146.348 32.3806 148.443 31.9424C149.197 31.7834 149.936 32.2667 150.093 33.0186C150.252 33.7726 149.768 34.5116 149.016 34.6684C148.967 34.6856 148.907 34.6941 148.855 34.6984Z" fill="#FFAC26" />
        <path d="M180.75 24.8584C183.513 27.6596 185.163 31.3007 185.67 34.9977C186.183 38.6968 185.519 42.5141 183.715 45.6353C185.1 42.3035 185.214 38.6001 184.306 35.2705C183.403 31.9366 181.479 28.9378 178.89 26.9271C178.282 26.4545 178.173 25.5781 178.645 24.9701C179.118 24.3622 179.994 24.2527 180.602 24.7252C180.649 24.7618 180.692 24.8004 180.733 24.8412L180.75 24.8584Z" fill="#FFAC26" />
</svg>